<?xml version="1.0" standalone="no"?>
<!DOCTYPE svg PUBLIC "-//W3C//DTD SVG 20010904//EN"
 "http://www.w3.org/TR/2001/REC-SVG-20010904/DTD/svg10.dtd">
<svg version="1.0" xmlns="http://www.w3.org/2000/svg"
 width="200.000000pt" height="200.000000pt" viewBox="0 0 200.000000 200.000000"
 preserveAspectRatio="xMidYMid meet">
<metadata>
Created by potrace 1.11, written by Peter Selinger 2001-2013
</metadata>
<g transform="translate(0.000000,200.000000) scale(0.100000,-0.100000)"
fill="#000000" stroke="none">
<path d="M883 1636 c-65 -16 -101 -39 -109 -71 -3 -14 -12 -25 -19 -25 -25 0
-64 -59 -71 -108 -10 -67 17 -302 35 -302 26 1 31 18 19 74 -9 46 -9 63 1 78
7 11 21 52 31 91 16 65 20 72 41 71 13 -1 76 -8 139 -15 98 -10 126 -10 187 3
l73 14 6 -35 c4 -20 16 -60 27 -90 15 -41 18 -69 14 -117 -4 -59 1 -74 28 -74
10 0 25 114 25 194 0 117 -18 180 -70 239 -71 80 -209 109 -357 73z"/>
<path d="M753 1244 c-3 -8 -1 -20 6 -27 6 -6 11 -28 11 -48 0 -50 27 -69 98
-69 43 0 58 5 77 24 13 13 27 36 31 50 8 35 40 35 48 0 4 -14 18 -37 31 -50
19 -19 34 -24 77 -24 69 0 93 17 102 72 15 89 21 83 -76 86 -60 2 -98 -2 -122
-12 -32 -13 -40 -13 -71 0 -50 20 -204 20 -212 -2z m206 -19 c11 -10 11 -20 2
-48 -17 -51 -31 -58 -103 -55 l-63 3 -9 38 c-11 45 -1 68 35 79 33 9 121 -1
138 -17z m248 3 c17 -13 17 -69 0 -92 -10 -14 -25 -16 -77 -14 -65 3 -65 3
-84 43 -22 48 -13 67 35 77 42 8 109 1 126 -14z"/>
<path d="M527 659 c-98 -27 -187 -54 -198 -60 -26 -13 -32 -33 -54 -163 l-19
-109 50 -45 c152 -139 312 -222 509 -263 77 -17 293 -17 370 0 197 41 357 124
509 262 l49 45 -18 115 c-9 63 -23 123 -30 135 -17 27 -37 35 -243 89 l-173
46 -50 -46 c-74 -69 -126 -89 -229 -89 -103 0 -155 20 -228 88 -27 25 -53 46
-58 45 -5 0 -89 -23 -187 -50z"/>
</g>
</svg>
